<?xml version="1.0" encoding="UTF-8" standalone="no"?>
<svg
   width="1024"
   height="1024"
   version="1.1"
   id="svg59"
   sodipodi:docname="test3.svg"
   inkscape:version="1.4 (86a8ad7, 2024-10-11)"
   xmlns:inkscape="http://www.inkscape.org/namespaces/inkscape"
   xmlns:sodipodi="http://sodipodi.sourceforge.net/DTD/sodipodi-0.dtd"
   xmlns="http://www.w3.org/2000/svg"
   xmlns:svg="http://www.w3.org/2000/svg">
  <sodipodi:namedview
     id="namedview59"
     pagecolor="#ffffff"
     bordercolor="#000000"
     borderopacity="0.25"
     inkscape:showpageshadow="2"
     inkscape:pageopacity="0.0"
     inkscape:pagecheckerboard="0"
     inkscape:deskcolor="#d1d1d1"
     inkscape:zoom="0.78808594"
     inkscape:cx="512"
     inkscape:cy="512"
     inkscape:window-width="1920"
     inkscape:window-height="1009"
     inkscape:window-x="1912"
     inkscape:window-y="-8"
     inkscape:window-maximized="1"
     inkscape:current-layer="svg59" />
  <path
     fill="#FEFEFE"
     d="M0 0L1024 0L1024 1024L0 1024L0 0Z"
     id="path1"
     style="opacity:0" />
  <path
     fill="#3F68AC"
     d="M338.116 177.929L424.056 177.885L448.325 177.94C452.86 177.957 457.873 178.326 462.352 177.644L461.344 179.923C456.061 180.266 450.602 179.995 445.303 179.993L413.688 179.965C385.499 179.944 357.288 180.234 329.102 179.917C327.906 179.487 326.694 179.334 325.445 179.122L325.654 179.351L327.3 178.572L326.527 178.587L338.116 177.929Z"
     id="path2" />
  <path
     fill="#668CC3"
     d="M462.352 177.644C468.531 180.982 481.155 195.153 486.98 200.714C500.937 214.119 514.658 227.816 528.418 241.427C535.019 247.957 542.722 254.473 548.551 261.634L544.969 261.533C538.675 254.154 530.829 247.443 523.881 240.641Q504.091 221.252 484.535 201.628C477.047 196.353 468.702 183.62 461.344 179.923L462.352 177.644Z"
     id="path3" />
  <path
     fill="#3F68AC"
     d="M873.792 562.48L874.333 561.897C875.796 563.414 875.847 569.306 876.082 571.592C876.548 586.612 876.305 601.717 876.295 616.746L876.181 684.074L876.482 780.664L874.236 780.618C874.857 766.433 874.315 751.972 874.301 737.757L874.303 651.815L874.435 592.625C874.425 582.893 875.346 572.049 873.792 562.48Z"
     id="path4" />
  <path
     id="path5"
     d="M 714.91602 261.24414 L 714.86914 261.83789 C 714.32614 269.22089 715.72169 293.13666 711.30469 297.72266 C 711.37469 297.52966 711.44763 297.33658 711.51562 297.14258 C 712.98862 292.94758 714.16877 288.32436 713.00977 283.94336 C 712.42977 291.74536 711.24795 297.91533 704.87695 303.23633 C 700.00495 307.30733 694.62855 308.53137 688.43555 308.73438 C 682.76255 302.79737 673.23319 292.35308 666.36719 288.33008 C 666.68119 294.82908 665.41173 302.74914 666.80273 308.99414 C 667.29773 303.18514 666.9865 297.22744 666.9375 291.39844 L 676.34961 300.46289 C 679.21261 303.16689 682.17317 305.8025 684.57617 308.9375 L 666.80273 308.99414 C 666.79773 311.15814 666.70663 313.35181 666.89062 315.50781 C 666.96463 314.23681 667.12822 313.02358 667.32422 311.76758 C 673.61622 310.90858 681.18806 311.26244 687.53906 311.77344 C 687.62806 311.89044 687.71564 312.01 687.80664 312.125 C 690.85564 316.016 695.08261 319.41925 698.72461 322.78125 C 720.23461 342.63225 728.10845 346.05522 728.06445 376.57422 C 728.29345 374.78822 728.37422 372.83866 729.19922 371.22266 L 729.24609 371.19141 C 729.24509 371.19241 729.24514 371.19331 729.24414 371.19531 L 728.94336 371.90625 L 729.49609 372.50781 C 729.60809 374.86781 729.69697 377.22708 729.91797 379.58008 C 729.95464 378.91541 729.97885 378.25127 729.99219 377.58594 C 730.12019 371.45094 730.42509 365.11973 729.37109 359.05273 C 725.82309 338.64073 704.938 326.11939 691.375 312.02539 L 691.4668 311.19727 C 697.7888 310.38427 703.36037 308.51316 707.98438 303.91016 C 717.95338 293.98616 715.08402 274.42014 714.91602 261.24414 z "
     style="fill:#446ca2;fill-opacity:1" />
  <defs
     id="defs7">
    <linearGradient
       id="gradient_0"
       gradientUnits="userSpaceOnUse"
       x1="643.19366"
       y1="291.83774"
       x2="652.5816"
       y2="179.41603">
      <stop
         offset="0"
         stop-color="#456DA3"
         id="stop6" />
      <stop
         offset="1"
         stop-color="#6688B2"
         id="stop7" />
    </linearGradient>
  </defs>
  <path
     fill="url(#gradient_0)"
     d="M579.459 261.534L579.427 226.554C579.425 217.591 578.35 207.148 580.806 198.452C581.814 194.886 583.892 192.008 586.533 189.46C589.661 186.44 593.798 184.02 598.062 183.062C607.166 181.016 626.74 182.103 636.719 182.084C654.96 182.05 673.475 181.396 691.691 182.121C698.917 182.409 704.815 185.285 709.59 190.727C712.603 194.16 714.246 198.507 714.967 202.979C716.308 211.301 715.132 221.038 715.078 229.504C715.011 239.949 715.636 250.861 714.916 261.244L714.869 261.838C714.326 269.221 715.722 293.136 711.305 297.722C711.375 297.529 711.447 297.337 711.515 297.143C712.988 292.948 714.169 288.324 713.01 283.943C712.511 277.482 712.939 270.626 712.932 264.12L712.874 223.583C712.857 216.074 713.621 207.328 711.803 200.034C710.942 196.58 709.093 193.702 706.577 191.206C703.635 188.289 699.587 185.734 695.455 185.003C687.279 183.557 674.667 184.58 666.16 184.605Q636.947 184.784 607.733 184.604C599.722 184.601 593.449 185.943 587.621 191.988C584.802 194.912 583.448 198.29 582.647 202.223C581.214 209.257 581.751 217.087 581.699 224.251L581.59 261.515L579.459 261.534Z"
     id="path7" />
  <path
     id="path9"
     d="M 115.63086 348.46484 L 115.58008 422.12305 C 115.54808 432.43205 114.45941 450.16856 116.06641 459.72656 C 116.77041 463.91556 119.33355 468.21822 122.31055 471.19922 C 125.30055 474.19322 129.41469 476.52989 133.55469 477.46289 C 140.94969 479.12989 150.41378 478.12825 158.05078 478.15625 L 203.54492 478.41406 C 217.36592 491.82506 230.24666 506.49686 243.47266 520.50586 C 247.67666 524.95786 252.21511 531.19172 257.03711 534.76172 L 257.02734 530.89453 L 257.02539 528.35547 C 240.1801 511.39504 224.10355 493.43629 207.82617 475.91797 L 257 475.97266 L 256.92578 348.64648 L 115.63086 348.46484 z "
     style="fill:#658cc3;fill-opacity:1" />
  <path
     fill="#FEFEFE"
     d="M214.167 382.584C218.277 382.084 221.773 382.215 225.529 384.134Q226.19 384.472 226.815 384.875Q227.439 385.278 228.02 385.741Q228.601 386.204 229.133 386.723Q229.665 387.241 230.142 387.811Q230.62 388.38 231.038 388.994Q231.456 389.608 231.811 390.26Q232.166 390.913 232.454 391.598Q232.742 392.283 232.96 392.993C234.718 398.774 232.55 403.817 229.902 408.857C231.554 409.701 233.156 410.577 234.71 411.591C240.941 415.657 245.761 422.382 247.112 429.746C248.304 436.24 246.591 442.791 242.839 448.167C237.801 455.385 230.145 459.418 221.621 460.845C218.599 461.064 215.713 461.102 212.714 460.587Q211.967 460.458 211.227 460.293Q210.488 460.127 209.757 459.924Q209.027 459.722 208.308 459.483Q207.588 459.244 206.882 458.97Q206.176 458.695 205.484 458.385Q204.792 458.076 204.117 457.732Q203.441 457.388 202.784 457.011Q202.126 456.634 201.489 456.224Q200.851 455.814 200.235 455.373Q199.618 454.932 199.025 454.461Q198.431 453.989 197.862 453.489Q197.293 452.988 196.749 452.46Q196.206 451.931 195.69 451.377Q195.173 450.822 194.686 450.242Q194.198 449.661 193.74 449.058Q193.281 448.454 192.854 447.828C188.943 442.089 187.658 435.267 189.112 428.482C191.181 418.827 198.079 413.394 205.838 408.26C204.811 406.65 203.83 404.966 203.127 403.186C201.682 399.525 201.785 395.143 203.351 391.544C205.456 386.707 209.444 384.332 214.167 382.584Z"
     id="path11" />
  <path
     id="path12"
     style="fill:#668cc3;fill-opacity:1"
     d="M 793.0293 344.0332 C 789.7953 344.02583 786.56541 344.0857 783.37891 344.3457 C 779.48091 344.6627 775.54842 345.46133 771.98242 347.11133 C 766.14442 349.81033 761.30634 355.203 759.15234 361.25 C 758.15334 364.055 757.70934 367.07016 757.52734 370.03516 C 756.61134 385.01316 757.56436 400.4368 757.44336 415.4668 C 757.31936 430.9948 756.00309 447.37931 757.37109 462.82031 C 757.44509 463.72831 757.56204 464.6313 757.7207 465.5293 C 757.88004 466.42663 758.08027 467.31469 758.32227 468.19336 C 758.56427 469.07203 758.84853 469.93706 759.17188 470.78906 C 759.49521 471.64106 759.85648 472.47692 760.25781 473.29492 C 763.73381 480.32392 769.80189 485.91034 777.33789 488.27734 C 783.53289 490.22234 789.97928 489.70878 796.36328 489.42578 C 796.97828 489.49378 797.63703 489.38891 798.20703 489.62891 C 799.21703 490.05391 853.07245 542.57003 858.31445 547.70703 C 860.82845 550.17003 871.57197 561.70947 873.79297 562.48047 L 874.33203 561.89648 C 875.79503 563.41348 875.84703 569.3058 876.08203 571.5918 C 876.47403 568.5628 876.33834 565.30323 876.40234 562.24023 C 852.35234 537.40623 826.51648 514.3892 802.52148 489.5332 C 814.63948 489.9082 881.85392 491.38506 889.29492 488.66406 C 895.23292 486.49206 900.64233 482.00064 903.23633 476.18164 C 904.24733 474.49964 905.32759 472.52614 905.68359 470.57812 C 906.68159 465.12613 906.02319 458.68809 905.99219 453.12109 L 905.81641 419.25391 L 905.96289 384.88086 C 906.00289 378.47086 906.35722 371.87519 905.82422 365.49219 C 905.58822 362.66619 904.52577 359.91897 903.00977 357.54297 C 902.85977 357.2183 902.70049 356.89547 902.53516 356.57812 C 902.36982 356.26079 902.19758 355.9493 902.01758 355.64062 C 901.83691 355.33196 901.64974 355.02656 901.45508 354.72656 C 901.25974 354.42656 901.05699 354.1318 900.84766 353.8418 C 900.63899 353.5518 900.42255 353.26633 900.19922 352.98633 C 899.97655 352.70699 899.74772 352.43273 899.51172 352.16406 C 899.27505 351.8954 899.03187 351.63429 898.7832 351.37695 C 898.53454 351.12029 898.2802 350.86771 898.01953 350.62305 C 897.75886 350.37771 897.49337 350.13954 897.2207 349.9082 C 896.9487 349.6762 896.67005 349.45109 896.38672 349.23242 C 896.10339 349.01376 895.81482 348.80232 895.52148 348.59766 C 895.22815 348.39299 894.93157 348.19586 894.62891 348.00586 C 894.32624 347.81519 894.01708 347.63236 893.70508 347.45703 C 893.39374 347.2817 893.07977 347.11379 892.75977 346.95312 C 892.44043 346.79312 892.1164 346.63947 891.78906 346.49414 C 891.46173 346.34947 891.13216 346.2146 890.79883 346.08594 C 888.03383 345.01194 885.09748 344.46763 882.14648 344.26562 C 875.88248 343.83662 869.47822 344.18733 863.19922 344.23633 L 835.61328 344.2168 L 802.69922 344.12305 C 799.49972 344.11555 796.2633 344.04058 793.0293 344.0332 z M 788.31836 346.625 C 791.18761 346.65175 794.066 346.78633 796.8125 346.79883 L 828.05859 346.91602 L 864.78711 346.92383 C 871.95311 346.91083 879.4928 346.40205 886.5918 347.37305 C 893.4288 348.30805 897.35764 353.43508 901.18164 358.58008 C 902.22664 361.54108 902.91178 364.25063 903.17578 367.39062 C 904.43578 382.41163 903.53887 400.29327 903.54688 415.57227 C 903.55587 431.85427 904.44806 450.67427 903.28906 466.69727 C 903.09006 469.44227 902.73661 472.01291 901.47461 474.50391 C 900.50661 476.41691 899.30734 478.21564 898.02734 479.93164 C 894.81934 482.67364 891.05544 485.71948 886.89844 486.77148 C 880.15144 488.47848 867.48455 487.30506 860.06055 487.28906 C 840.11921 487.30373 820.17828 487.18626 800.23828 486.93359 C 790.51928 479.42059 781.6703 469.3627 772.9043 460.7207 C 769.2573 457.1267 765.19517 452.62331 760.82617 449.94531 C 760.20517 448.92831 759.97734 448.2805 759.90234 447.0625 C 759.06534 433.5105 760.01344 419.42836 760.02344 405.81836 C 760.03244 393.84836 758.98208 381.10489 760.08008 369.21289 C 760.71208 362.36389 763.36077 356.6007 768.75977 352.2207 C 771.94077 349.6387 775.81286 347.72666 779.88086 347.09766 C 782.59036 346.67916 785.44911 346.59825 788.31836 346.625 z M 760.81055 452.52344 C 771.89055 464.48144 784.80531 474.82622 795.82031 486.82422 C 791.00631 487.28622 785.84855 487.4535 781.06055 486.6875 C 774.33855 485.6125 768.54172 481.08158 764.63672 475.64258 C 759.83372 468.95358 758.66142 460.98091 759.98242 453.00391 L 760.81055 452.52344 z " />
  <path
     fill="#668CC3"
     d="M115.514 216.885C139.998 216.324 164.556 216.898 189.05 216.944L323.884 217.006Q323.793 239.326 323.936 261.645L304.402 261.635C290.417 261.655 278.817 262.344 268.292 272.693C259.97 280.876 256.904 290.37 256.879 301.828L256.871 330C256.858 335.352 256.501 340.965 257.07 346.281C241.887 345.512 226.305 346.298 211.08 346.272L115.762 346.013C116.437 303.019 115.539 259.891 115.514 216.885Z"
     id="path15" />
  <path
     fill="#FEFEFE"
     d="M216.424 248.171C220.551 248.097 224.495 249.084 227.984 251.351C231.579 253.688 234.256 257.26 235.057 261.512C236.091 266.995 233.808 271.279 230.903 275.679C232.632 276.652 234.355 277.677 235.99 278.804C241.395 282.533 245.417 289.039 246.449 295.504C247.533 302.298 245.234 309.72 241.159 315.212C236.05 322.097 229.296 325.078 221.119 326.341C218.877 326.588 216.479 326.594 214.232 326.361C206.769 325.586 199.579 321.721 194.983 315.769C190.788 310.336 188.739 303.093 189.777 296.277C191.201 286.928 196.981 281.057 204.301 275.804C203.294 273.673 202.246 271.425 201.689 269.13C200.574 264.54 201.247 259.619 203.866 255.655C206.83 251.166 211.292 249.116 216.424 248.171Z"
     id="path16" />
  <path
     fill="#668CC3"
     d="M115.548 214.967C115.849 190.843 115.557 166.69 115.584 142.562C115.595 132.857 114.582 119.501 116.188 110.278C117.053 105.313 118.851 101.088 122.315 97.3564C126.871 92.4478 134.224 88.6277 141.045 88.5065C177.387 87.8607 213.881 88.7357 250.237 88.7321L284.492 88.5947C290.346 88.5632 296.937 87.946 302.694 88.915C307.618 89.7437 312.753 92.451 316.289 95.9538C319.069 98.7084 321.513 102.266 322.517 106.086C324.992 115.508 323.734 127.342 323.733 137.102L323.801 177.52C328.577 177.563 333.351 177.554 338.116 177.929L326.527 178.587L327.3 178.572L325.654 179.351L325.445 179.122C326.694 179.334 327.906 179.487 329.102 179.917C327.334 179.949 325.878 180.057 324.176 180.552C322.686 187.886 323.73 206.62 323.751 214.995L115.548 214.967Z"
     id="path17" />
  <path
     fill="#FEFEFE"
     d="M215.284 117.116C220.284 116.552 225.063 117.224 229.147 120.366Q229.732 120.809 230.271 121.308Q230.809 121.807 231.296 122.356Q231.783 122.906 232.213 123.5Q232.643 124.095 233.012 124.729Q233.382 125.364 233.687 126.031Q233.992 126.699 234.229 127.394Q234.467 128.088 234.635 128.803Q234.802 129.517 234.899 130.245C235.6 135.756 233.095 139.498 229.825 143.559Q231.43 144.427 232.99 145.373C239.628 149.377 245.013 154.969 246.785 162.769C248.387 169.823 246.677 177.091 242.694 183.046C238.022 190.03 230.98 194.067 222.885 195.729Q221.367 195.916 219.838 195.969Q218.31 196.022 216.782 195.941Q215.255 195.86 213.74 195.645Q212.226 195.43 210.736 195.083Q210.045 194.923 209.363 194.727Q208.68 194.532 208.009 194.303Q207.338 194.073 206.679 193.81Q206.02 193.547 205.375 193.251Q204.73 192.955 204.101 192.627Q203.472 192.299 202.86 191.939Q202.248 191.58 201.655 191.19Q201.063 190.8 200.49 190.38Q199.918 189.961 199.368 189.513Q198.817 189.065 198.29 188.59Q197.763 188.115 197.261 187.614Q196.758 187.113 196.282 186.587Q195.806 186.061 195.356 185.512Q194.907 184.963 194.486 184.391Q194.065 183.82 193.674 183.229Q193.282 182.637 192.921 182.026C189.293 175.786 188.223 167.599 190.275 160.638C192.85 151.902 199.307 147.663 206.769 143.437C205.541 141.599 204.107 139.671 203.353 137.583Q203.092 136.861 202.906 136.117Q202.72 135.372 202.611 134.613Q202.502 133.853 202.47 133.086Q202.438 132.319 202.485 131.553Q202.531 130.787 202.655 130.03Q202.779 129.273 202.98 128.532Q203.18 127.791 203.454 127.075Q203.729 126.358 204.075 125.673C206.449 120.965 210.508 118.727 215.284 117.116Z"
     id="path18" />
  <path
     id="path19"
     d="m 628.20898,261.41602 c -4.59537,-0.0478 -9.2222,0.18676 -13.5957,0.19726 -11.008,0.108 -22.0161,0.0757 -33.02344,-0.0977 l -2.13086,0.0176 c -10.302,0.14534 -20.60487,0.18023 -30.9082,0.10157 l -3.58203,-0.10157 -221.0332,0.11133 -19.53321,-0.01 c -13.985,0.02 -25.58437,0.70959 -36.10937,11.05859 -8.322,8.183 -11.38906,17.67677 -11.41406,29.13476 L 256.87109,330 c -0.013,5.352 -0.36978,10.96525 0.19922,16.28125 l -0.14453,2.36523 0.0762,129.86329 0.0254,52.38476 0.01,3.86719 -0.12695,99.71289 c -0.003,16.984 0.92439,35.84984 -0.22461,52.58984 -14.907,6.022 -26.02139,15.42841 -32.40039,30.44141 -5.168,12.163 -4.43261,24.24706 -4.34961,37.16406 0.094,8.48734 0.11383,16.97489 0.0625,25.46289 l -86.00782,-0.0527 c -15.772,0.012 -31.95727,-0.68194 -47.671871,0.41406 -0.238,9.42533 -0.334176,18.8513 -0.287109,28.2793 -0.0111,5.667 -0.296697,11.56317 0.220703,17.20117 44.547097,0.11 89.230857,-0.73617 133.755857,0.17383 l -0.0488,77.26172 c 0.047,10.314 -0.42354,20.89597 0.0645,31.16796 0.032,0.678 0.24161,1.13918 0.59961,1.70118 0.686,0.294 1.21117,0.48567 1.95117,0.63867 6.463,-1.433 22.3149,-0.47324 29.7539,-0.49024 l 74.08008,-0.0664 139.51563,0.16992 43.95312,0.0859 c 8.663,0.006 17.51449,-0.36272 26.14649,0.36328 0.911,-31.583 0.12576,-63.33841 0.13476,-94.94141 3.382,3.004 6.76485,5.71442 10.83985,7.73242 0.55533,0.27134 1.11754,0.52816 1.68554,0.77149 0.568,0.24333 1.14137,0.47217 1.72071,0.6875 0.57933,0.21533 1.16457,0.41685 1.7539,0.60351 0.58934,0.186 1.18197,0.3583 1.7793,0.51563 0.598,0.15733 1.20002,0.29845 1.80469,0.42578 0.60466,0.128 1.21226,0.24184 1.82226,0.33984 0.61,0.0973 1.22127,0.17876 1.83594,0.2461 0.614,0.068 1.23032,0.12087 1.84766,0.1582 0.61666,0.0367 1.23356,0.0591 1.85156,0.0664 0.618,0.007 1.23618,-0.002 1.85351,-0.0254 0.61801,-0.024 1.23428,-0.0632 1.84961,-0.11719 0.616,-0.054 1.2298,-0.12303 1.8418,-0.20703 0.612,-0.084 1.22275,-0.18221 1.83008,-0.29688 0.60733,-0.114 1.21117,-0.24272 1.8125,-0.38672 0.60067,-0.144 1.19768,-0.30322 1.79101,-0.47656 0.59334,-0.17333 1.18163,-0.36178 1.76563,-0.56445 12.183,-4.289 20.85995,-14.44933 26.25195,-25.86133 l 226.6211,0.20117 c 36.147,0.109 72.32184,-0.25167 108.46484,0.23633 0.619,-14.822 0.68027,-30.50197 -0.30273,-45.29297 -6.732,-0.57 -13.78969,-0.13914 -20.55469,-0.11914 -13.28067,0.088 -26.56113,0.0836 -39.8418,-0.0117 l -2.24609,-0.0469 c -10.797,0.717 -21.82725,0.37122 -32.65625,0.44922 -16.60534,0.24733 -33.21169,0.37357 -49.81836,0.3789 3.377,-2.018 6.78541,-4.06381 9.5664,-6.88281 4.823,-4.888 5.16149,-10.05248 5.02149,-16.52148 -2.477,-0.385 -5.01167,-0.40272 -7.51367,-0.51172 l -0.11133,-102.89063 0.23828,-43.08203 c 0.019,-7.439 0.57577,-15.38758 -0.24023,-22.76758 -0.204,-1.85 -0.95221,-3.42618 -2.28321,-4.74218 -1.44,-1.424 -3.04828,-1.66301 -4.98828,-1.875 -6.935,-0.76101 -14.46203,-0.20283 -21.45703,-0.17383 l -39.98047,0.14062 -2.23242,0.041 c -20.134,-0.792 -40.54022,-0.0926 -60.69922,-0.0586 l -0.19141,-266.61328 c -0.18399,-2.156 -0.0929,-4.34967 -0.0879,-6.51367 -1.391,-6.245 -0.12154,-14.16506 -0.43554,-20.66406 -2.12,-6.088 -5.28239,-11.92575 -9.77539,-16.59375 -0.50667,-0.53067 -1.03222,-1.0444 -1.57422,-1.53906 -0.542,-0.49467 -1.09916,-0.96912 -1.67383,-1.42579 -0.57467,-0.456 -1.16615,-0.8913 -1.77148,-1.30664 -0.60467,-0.41533 -1.22281,-0.81092 -1.85547,-1.18359 -0.632,-0.37267 -1.27564,-0.72278 -1.93164,-1.05078 -0.65667,-0.328 -1.32462,-0.63206 -2.00196,-0.91406 -0.67733,-0.282 -1.36326,-0.54073 -2.05859,-0.77539 -0.69533,-0.23467 -1.39742,-0.44486 -2.10742,-0.63086 -4.249,-1.1165 -8.81283,-1.44639 -13.40821,-1.49414 z m 101.80469,320.72265 c -5e-4,-33.741 0.23978,-67.5144 0.34766,-101.28515 -0.10788,33.77075 -0.34816,67.54415 -0.34766,101.28515 z M 687.80664,312.125 c 1.5245,1.9455 3.34295,3.76972 5.23633,5.52734 -1.89338,-1.75762 -3.71183,-3.58184 -5.23633,-5.52734 z m 41.30859,59.375 -0.17187,0.40625 0.0371,0.0391 c 0.0542,-0.14484 0.071,-0.30463 0.13476,-0.44531 z"
     style="display:inline" />
  <path
     fill="#FEFEFE"
     d="M549.108 663.537C551.948 662.399 555.995 662.915 559.028 662.956C559.056 669.874 559.186 676.801 558.783 683.711C555.11 677.217 552.375 670.235 549.108 663.537Z"
     id="path20" />
  <path
     fill="#D9E5EE"
     d="M511.338 626.282C516.369 624.924 523.791 625.901 529.045 625.91C539.038 625.928 549.094 625.975 559.078 625.565L559.028 662.956C555.995 662.915 551.948 662.399 549.108 663.537C547.004 660.341 545.249 656.929 543.126 653.733C534.641 640.96 524.893 633.16 511.338 626.282Z"
     id="path21" />
  <path
     fill="#FEFEFE"
     d="M440.442 614.389Q440.631 612.013 440.927 609.648C460.654 610.352 479.523 610.152 499.192 610.176L559.07 610.526L559.078 625.565C549.094 625.975 539.038 625.928 529.045 625.91C523.791 625.901 516.369 624.924 511.338 626.282C490.398 618.209 462.855 616.944 440.442 614.389Z"
     id="path22" />
  <path
     fill="#FEFEFE"
     d="M386.743 586.471C403.566 585.92 420.622 586.307 437.458 586.451L437.425 613.667L386.695 613.595Q386.596 600.033 386.743 586.471Z"
     id="path23" />
  <path
     fill="#E16349"
     d="M354.806 547.519C352.904 555.756 351.023 564.762 350.189 573.166C353.14 578.763 357.392 581.742 363.411 583.568C370.181 585.621 377.453 585.859 384.473 586.301C383.762 595.589 384.022 605.011 384.066 614.324C374.519 615.735 364.989 617.16 355.596 619.407C349.33 620.905 342.986 623.181 336.683 624.365C326.661 615.009 320.72 611.418 318.02 596.887C315.956 585.776 318.91 574.472 325.364 565.286C332.371 555.314 342.991 549.605 354.806 547.519Z"
     id="path24" />
  <path
     fill="#668CC3"
     d="M665.281 764.249L761.562 763.933L787.428 763.837C792.548 763.812 797.969 763.428 803.048 764.099C803.677 764.94 803.717 764.67 803.663 765.6C803.504 768.319 800.964 771.258 799.105 773.066C788.278 783.599 772.611 782.428 758.744 782.391L735.195 782.303Q669.605 782.005 604.016 782.462C601.894 776.383 599.17 770.417 596.703 764.464C619.525 763.953 642.448 764.324 665.281 764.249Z"
     id="path25" />
  <path
     fill="#E16349"
     d="M88.6484 782.518L219.962 782.54Q219.772 802.999 219.818 823.457L88.7145 823.457L88.6484 782.518Z"
     id="path26" />
  <path
     fill="#E16349"
     d="M932.113 783.25C932.842 783.245 933.508 783.332 934.228 783.425C935.439 785.937 934.624 818.243 934.65 823.405L605.375 822.801L604.245 822.78C603.199 821.617 603.979 819.912 604.412 818.557C607.878 807.691 607.239 797.845 605.485 786.685C662.472 786.525 719.531 787.249 776.503 786.577C781.157 786.523 785.345 784.095 790.001 784.011Q861.055 783.177 932.113 783.25Z"
     id="path27" />
  <path
     fill="#3F68AC"
     d="M728.065 376.574C728.294 374.788 728.375 372.838 729.2 371.222L729.247 371.192C729.246 371.193 729.245 371.194 729.244 371.196L728.943 371.906L729.497 372.507C729.609 374.867 729.697 377.227 729.918 379.58C730.972 447.048 730.013 514.656 730.014 582.138L727.781 582.18C727.679 513.679 727.208 445.06 728.065 376.574Z"
     id="path29" />
  <path
     fill="#668CC3"
     d="M386.798 616.673C386.964 616.644 387.13 616.606 387.298 616.587C392.83 615.946 398.894 616.361 404.468 616.369C415.304 616.383 426.271 616.064 437.083 616.782C448.311 617.527 459.574 619.342 470.752 620.658C481.315 621.901 492.291 622.759 502.473 626.013C511.484 628.892 520.427 633.883 527.566 640.092Q531.376 643.456 534.664 647.331Q537.953 651.206 540.652 655.513C551.779 673.296 559.647 693.085 568.643 711.97C574.875 725.054 580.777 738.243 586.897 751.367C591.666 761.594 596.962 771.767 600.72 782.423Q602.166 786.404 603.019 790.554Q603.872 794.703 604.114 798.932C604.955 812.748 599.963 827.354 590.681 837.67C584.055 845.033 575.386 850.113 565.361 850.623C553.545 851.225 544.673 845.974 536.169 838.337L536.172 804.25L536.351 759.515C536.494 736.237 535.161 718.132 517.706 700.663C511.209 694.161 501.977 688.406 492.938 686.396C481.14 683.773 468.95 684.491 456.94 684.482L416.714 684.478L271.515 684.656C273.9 674.769 276.903 663.896 283.074 655.617C290.878 645.145 302.215 640.559 313.898 635.734C337.584 625.951 361.466 620.319 386.798 616.673Z"
     id="path30" />
  <path
     fill="#FEFEFE"
     d="M566.372 589.525C612.19 588.973 658.083 589.41 703.91 589.416L759.328 589.465C770.028 589.479 780.816 589.223 791.502 589.686C792.007 622.384 791.517 655.122 791.571 687.826C791.609 711.031 792.566 734.384 791.468 757.563C771.96 759.114 750.01 758.087 730.246 758.095C684.805 758.116 639.192 757.405 593.774 758.423L591.267 753.153C587.299 741.923 579.936 731.865 576.148 720.663C572.797 714.325 567.938 706.573 566.357 699.586C565.175 694.363 565.863 687.965 565.877 682.602L565.972 652.875L566.009 611.595C566.017 604.411 565.46 596.645 566.372 589.525Z"
     id="path31" />
  <path
     fill="#668CC3"
     d="M686.631 679.901C718.8 679.29 751.124 679.777 783.306 679.812C783.244 704.2 783.708 728.619 783.268 753.002C751.111 753.662 718.791 752.999 686.616 752.979L686.631 679.901Z"
     id="path32" />
  <path
     fill="#FEFEFE"
     d="M697.916 734.059L750.936 733.905L750.968 740.517L697.92 740.586L697.916 734.059Z"
     id="path33" />
  <path
     fill="#FEFEFE"
     d="M697.447 715.64L769.99 715.613L769.965 722.52L697.527 722.328L697.447 715.64Z"
     id="path34" />
  <path
     fill="#FEFEFE"
     d="M697.018 697.238L771.093 697.047C771.117 699.48 771.214 701.87 770.794 704.276L696.961 704.293C696.927 701.943 696.99 699.588 697.018 697.238Z"
     id="path35" />
  <path
     fill="#668CC3"
     d="M576.809 679.993L678.026 679.793C678.013 704.208 678.262 728.652 677.968 753.063C649.078 753.366 620.14 752.544 591.267 753.153C587.299 741.923 579.936 731.865 576.148 720.663C577.819 709.251 576.896 691.823 576.809 679.993Z"
     id="path36" />
  <path
     fill="#FEFEFE"
     d="M589.781 733.473L639.19 733.538C639.297 735.781 639.29 738.04 639.333 740.286L589.843 740.253L589.781 733.473Z"
     id="path37" />
  <path
     fill="#FEFEFE"
     d="M589.927 715.525C611.767 715.135 633.695 715.498 655.539 715.622L655.481 722.206C647.065 722.605 638.541 722.313 630.116 722.261L589.805 722.064C589.762 719.887 589.869 717.701 589.927 715.525Z"
     id="path38" />
  <path
     fill="#FEFEFE"
     d="M589.539 697.007C612.922 697.082 636.657 696.287 659.986 697.469C660.056 699.722 659.959 701.961 659.876 704.213C651.771 704.596 643.54 704.314 635.425 704.292L589.517 704.076L589.539 697.007Z"
     id="path39" />
  <path
     fill="#668CC3"
     d="M686.966 596.093L783.27 596.506C783.459 622.034 783.597 647.59 783.37 673.117C751.137 673.44 718.863 673.087 686.627 673.059L686.966 596.093Z"
     id="path40" />
  <path
     fill="#FEFEFE"
     d="M697.345 644.694C713.936 644.216 730.714 644.68 747.318 644.824C747.326 647.014 747.16 649.211 747.049 651.398C745.075 652.993 703.351 652.033 697.555 651.994L697.345 644.694Z"
     id="path41" />
  <path
     fill="#FEFEFE"
     d="M697.542 626.989C720.762 626.307 744.178 626.953 767.414 627.028L767.388 633.99C744.163 634.509 720.832 634.13 697.599 634.073L697.542 626.989Z"
     id="path42" />
  <path
     fill="#FEFEFE"
     d="M697.3 609.692C720.613 609.618 744.008 609.235 767.316 609.711L767.251 616.876C759.803 617.668 751.539 616.998 744.026 616.954L697.479 616.624L697.3 609.692Z"
     id="path43" />
  <path
     fill="#668CC3"
     d="M576.468 596.467C610.284 596.934 644.171 596.33 677.996 596.312L678.009 673.319L576.561 672.993L576.468 596.467Z"
     id="path44" />
  <path
     fill="#FEFEFE"
     d="M624.046 608.578C626.141 608.296 628.29 608.166 630.337 608.785Q630.94 608.971 631.521 609.218Q632.102 609.466 632.654 609.773Q633.206 610.079 633.723 610.442Q634.24 610.804 634.716 611.218Q635.193 611.633 635.624 612.094Q636.054 612.556 636.435 613.06Q636.815 613.564 637.141 614.104Q637.467 614.645 637.735 615.217C639.012 617.975 639.214 621.165 638.069 624.004C636.609 627.622 633.922 629.157 630.533 630.722C628.338 631.19 625.857 631.113 623.683 630.576C620.8 629.864 618.371 628.117 616.966 625.473C615.576 622.855 615.459 619.651 616.341 616.852C617.662 612.657 620.277 610.54 624.046 608.578Z"
     id="path45" />
  <path
     fill="#FEFEFE"
     d="M616.646 630.514C618.545 631.619 620.417 632.685 622.51 633.39C627.899 635.206 631.718 633.436 636.449 630.981C639.434 632.271 641.77 633.539 643.773 636.171Q644.172 636.688 644.517 637.243Q644.862 637.797 645.149 638.384Q645.437 638.971 645.664 639.583Q645.891 640.195 646.055 640.828Q646.219 641.46 646.319 642.105Q646.419 642.751 646.453 643.403Q646.488 644.055 646.456 644.708Q646.425 645.36 646.328 646.006C645.499 651.93 641.625 656.144 637.018 659.559C632.127 662.036 627.598 663.195 622.078 662.057C616.961 661.001 612.307 658.166 609.453 653.731C607.14 650.138 606.196 645.688 607.213 641.504C608.507 636.185 612.181 633.169 616.646 630.514Z"
     id="path46" />
  <path
     fill="#3A7569"
     d="M222.574 936.918C222.593 936.774 222.615 936.631 222.633 936.487C223.358 930.642 222.853 924.274 222.803 918.386Q222.661 902.668 222.688 886.949L222.783 774.105C222.799 759.725 221.228 738.537 224.503 725.326Q224.753 724.321 225.045 723.326Q225.336 722.332 225.669 721.351Q226.001 720.37 226.373 719.403Q226.746 718.436 227.158 717.485Q227.57 716.535 228.021 715.602Q228.471 714.669 228.96 713.755Q229.449 712.842 229.975 711.949Q230.501 711.057 231.064 710.186Q231.626 709.316 232.224 708.47Q232.822 707.624 233.454 706.803Q234.086 705.982 234.751 705.188Q235.417 704.394 236.114 703.628Q236.812 702.862 237.54 702.125Q238.269 701.388 239.027 700.682Q239.786 699.976 240.572 699.302Q241.359 698.628 242.173 697.987C249.433 692.289 258.263 689.093 267.366 687.864C277.516 686.494 288.957 687.424 299.249 687.401L363.723 687.275L444.105 687.137C457.547 687.158 471.854 686.195 485.138 687.895C499.644 689.752 512.165 697.481 520.951 709.06C526.451 716.309 530.616 725.223 532.123 734.23C533.526 742.618 533.126 751.356 533.144 759.836L533.113 796.838L533.282 914.777C533.289 917.012 533.079 935.574 533.565 936.094C533.837 936.385 535.571 936.841 536.024 936.98C527.392 936.254 518.539 936.624 509.876 936.618L465.923 936.531L326.408 936.362L252.329 936.428C244.89 936.445 229.037 935.485 222.574 936.918Z"
     id="path47" />
  <path
     fill="#D9E5EE"
     d="M259.477 686.309L259.885 418.747L259.798 333.734C259.825 322.294 258.93 305.305 260.244 294.415C261.099 287.326 265.06 280.235 270.009 275.201C277.733 267.345 286.783 264.453 297.601 264.429L533.684 264.368L602.182 264.382C613.193 264.366 626.798 263.346 637.461 264.812Q638.671 264.981 639.863 265.248Q641.055 265.516 642.221 265.881Q643.386 266.246 644.518 266.706Q645.65 267.165 646.74 267.716Q647.831 268.267 648.872 268.906Q649.913 269.545 650.898 270.268Q651.883 270.99 652.806 271.792Q653.728 272.593 654.581 273.467C659.04 277.978 663.078 284.552 664.044 290.882C665.355 299.473 664.423 309.585 664.431 318.303L664.473 375.44L664.504 582.126L600.512 582.078C590.083 582.077 578.958 581.296 568.601 582.212C565.832 582.457 563.237 582.983 560.741 584.231C557.449 588.723 558.967 604.415 559.07 610.526L499.192 610.176C479.523 610.152 460.654 610.352 440.927 609.648Q440.631 612.013 440.442 614.389C439.09 607.631 440.167 593.928 440.245 586.5C454.61 586.219 468.107 585.847 480.726 578.205L478.979 570.844Q477.704 564.892 476.709 558.886C475.86 556.335 475.577 553.124 475.07 550.46L471.219 530.089C470.194 525.886 469.483 521.615 468.719 517.358C467.263 510.129 466.317 502.817 464.761 495.602C463.34 490.851 461.387 486.359 459.147 481.943C451.558 470.855 441.442 461.133 428.404 456.968C418.455 453.827 409.705 454.106 399.582 456.23Q398.296 456.62 397.032 457.073Q395.767 457.526 394.526 458.041Q393.286 458.556 392.072 459.131Q390.858 459.707 389.675 460.342Q388.491 460.978 387.34 461.671Q386.189 462.364 385.074 463.113Q383.959 463.862 382.883 464.665Q381.806 465.469 380.771 466.325Q379.735 467.18 378.743 468.086Q377.752 468.992 376.806 469.946Q375.86 470.9 374.963 471.9Q374.065 472.9 373.219 473.943Q372.372 474.985 371.578 476.069Q370.784 477.152 370.044 478.274Q369.305 479.395 368.622 480.552Q367.939 481.709 367.314 482.898L366.938 483.607C364.437 489.793 363.005 495.935 362.141 502.55C359.963 513.973 358.234 525.797 356.514 537.314Q355.533 542.395 354.806 547.519C342.991 549.605 332.371 555.314 325.364 565.286C318.91 574.472 315.956 585.776 318.02 596.887C320.72 611.418 326.661 615.009 336.683 624.365C326.886 627.416 317.493 631.048 307.989 634.909C303.136 636.892 298.258 638.966 293.82 641.78C278.425 651.54 272.041 667.67 268.211 684.822L259.477 686.309Z"
     id="path48" />
  <path
     fill="#FEFEFE"
     d="M471.855 416.091C479.037 415.614 486.402 415.907 493.606 415.892L532.231 415.875C548.86 415.95 566.768 415.132 583.236 416.004C585.421 416.12 587.263 416.185 588.745 418.032C590.108 419.73 590.378 422.174 590.002 424.26C589.632 426.312 588.664 427.213 587.063 428.376Q584.294 428.809 581.492 428.852C558.249 429.283 534.902 428.52 511.645 428.46L487.704 428.491C482.852 428.501 477.7 428.806 472.887 428.158C471.748 428.005 470.806 427.441 470.06 426.567C468.947 425.262 468.685 423.608 468.802 421.956C469.002 419.153 469.724 417.866 471.855 416.091Z"
     id="path49" />
  <path
     fill="#FEFEFE"
     d="M476.709 558.886L477.324 558.06C483.312 557.384 489.754 557.833 495.791 557.83L528.364 557.663L588.906 557.59C598.481 557.601 608.332 557.078 617.861 557.596C619.702 557.696 621.905 558.033 623.294 559.355C624.738 560.729 625.272 562.899 625.087 564.832C624.907 566.707 624.068 568.557 622.567 569.737C621.507 570.572 620.173 571.029 618.842 571.176C615.978 571.494 612.889 571.037 609.995 571.003C603.072 570.919 596.142 570.99 589.218 570.98L508.439 570.549C499.659 570.548 487.398 569.568 478.979 570.844Q477.704 564.892 476.709 558.886Z"
     id="path50" />
  <path
     fill="#FEFEFE"
     d="M473.661 338.565C499.955 337.655 526.517 338.334 552.837 338.329C575.138 338.325 597.746 337.526 620.009 338.401C621.094 338.444 621.903 338.669 622.86 339.226C624.081 339.936 624.95 341.484 625.302 342.812C625.799 344.691 625.553 346.87 624.535 348.539C623.803 349.739 622.965 350.177 621.625 350.519C589.515 351.221 557.275 350.87 525.149 350.996L492.562 351.11C486.79 351.128 480.674 351.532 474.949 350.877C473.029 350.657 471.319 350.328 470.196 348.547C469.31 347.142 469.377 345.333 469.747 343.776C470.348 341.251 471.534 339.948 473.661 338.565Z"
     id="path51" />
  <path
     fill="#FEFEFE"
     d="M494.848 305.751L576.254 305.496C590.198 305.481 604.4 304.834 618.317 305.497C620.088 305.581 621.755 305.64 623.342 306.498C624.488 307.814 624.991 308.923 625.073 310.69C625.176 312.907 624.815 314.923 623.306 316.61C617.599 319.67 606.563 318.123 600.125 318.053L519.31 318.054C505.193 318.09 490.711 318.883 476.628 318.092C474.631 317.979 472.424 317.986 470.751 316.743C469.341 315.695 468.682 314.259 468.61 312.527C468.551 311.114 469.35 309.629 470.297 308.636C474.511 304.217 488.773 305.812 494.848 305.751Z"
     id="path52" />
  <path
     fill="#FEFEFE"
     d="M474.669 376.23C503.46 375.702 532.335 376.412 561.135 376.353L602.454 376.043C607.422 376.006 612.475 375.647 617.431 375.784C618.949 375.826 620.568 376.061 621.976 376.653C623.469 377.281 624.938 378.522 625.449 380.111C626.132 382.239 625.572 384.324 624.492 386.221C623.561 387.857 622.574 388.248 620.877 388.698C612.943 389.195 604.805 388.851 596.848 388.83L550.586 388.677L500.08 388.85C492.593 388.889 484.939 389.362 477.476 389.068C475.634 388.996 473.644 388.731 471.947 387.975C470.57 387.362 469.325 386.354 468.906 384.844C468.352 382.853 469.558 379.393 470.776 377.814C471.754 376.546 473.198 376.451 474.669 376.23Z"
     id="path53" />
  <path
     fill="#FEFEFE"
     d="M468.719 517.358C469.821 516.28 470.652 516.478 472.189 516.427C492.488 515.744 513.041 516.442 533.369 516.45C560.938 516.461 588.583 515.971 616.14 516.343C618.543 516.375 621.565 516.368 623.304 518.295C624.657 519.795 625.338 522.569 625.106 524.554C624.938 525.994 624.403 527.036 623.248 527.913C621.581 529.18 619.34 529.572 617.308 529.768C606.116 530.849 592.009 529.873 580.481 529.936L506.032 529.99C494.458 529.999 482.783 529.691 471.219 530.089C470.194 525.886 469.483 521.615 468.719 517.358Z"
     id="path54" />
  <path
     fill="#FEFEFE"
     d="M459.147 481.943L568.272 481.911L602.523 481.827C607.602 481.841 613.047 481.44 618.074 481.971C620.319 482.209 622.889 482.797 624.421 484.593C625.463 485.816 625.28 488.352 625.046 489.854C624.807 491.385 624.18 493.198 622.793 494.066C621.524 494.861 619.676 494.904 618.232 494.962C605.854 495.458 593.285 495.037 580.885 495.029C542.276 495.004 503.326 493.938 464.761 495.602C463.34 490.851 461.387 486.359 459.147 481.943Z"
     id="path55" />
  <path
     fill="#FEFEFE"
     d="M307.989 634.909C306.783 631.938 307.253 503.911 307.467 493.206C307.516 490.762 307.381 487.37 308.461 485.159C308.826 484.411 309.803 484.072 310.558 483.809C312.574 483.105 314.866 482.791 316.992 482.657C322.886 482.286 363.785 481.948 366.938 483.607C364.437 489.793 363.005 495.935 362.141 502.55C359.963 513.973 358.234 525.797 356.514 537.314Q355.533 542.395 354.806 547.519C342.991 549.605 332.371 555.314 325.364 565.286C318.91 574.472 315.956 585.776 318.02 596.887C320.72 611.418 326.661 615.009 336.683 624.365C326.886 627.416 317.493 631.048 307.989 634.909Z"
     id="path56" />
  <path
     fill="#E16349"
     d="M362.141 502.55C359.963 513.973 358.234 525.797 356.514 537.314C354.818 536.623 353.174 535.87 351.698 534.766C347.905 531.928 345.566 527.285 345 522.64C344.381 517.56 345.653 512.3 349.012 508.367C352.686 504.066 356.776 502.96 362.141 502.55Z"
     id="path57" />
  <path
     fill="#FEFEFE"
     d="M307.072 450.404C306.523 423.42 307.314 396.314 307.224 369.313L307.152 331.68C307.184 325.428 306.869 318.839 307.516 312.629C307.71 310.771 308.401 309.483 309.666 308.13C310.293 307.461 310.97 306.964 311.878 306.741C319.374 304.904 346.115 306.254 355.04 306.351Q379.823 306.629 404.606 306.431C412.578 306.402 421.222 305.703 429.126 306.516C430.784 306.687 432.01 306.696 433.186 307.978C434.356 309.252 434.764 311.439 434.863 313.091C435.435 322.609 434.996 332.386 434.996 341.937L435.011 397.433L435.15 432.448C435.176 438.204 435.761 444.587 434.964 450.249C434.663 452.39 433.169 453.733 431.498 454.934C430.497 455.653 429.447 456.31 428.404 456.968C418.455 453.827 409.705 454.106 399.582 456.23C393.787 454.452 380.614 455.373 373.828 455.328Q350.475 455.061 327.121 455.099C322.387 455.092 315.253 456.001 310.818 454.501C309.169 453.943 307.94 451.819 307.072 450.404Z"
     id="path58" />
  <path
     fill="#E16349"
     d="M369.813 312.134C373.668 311.86 377.218 311.982 380.931 313.148Q381.539 313.342 382.136 313.566Q382.733 313.79 383.319 314.045Q383.904 314.299 384.475 314.583Q385.047 314.866 385.603 315.179Q386.159 315.491 386.699 315.831Q387.239 316.171 387.761 316.538Q388.282 316.906 388.785 317.299Q389.287 317.692 389.769 318.11Q390.251 318.528 390.711 318.97Q391.171 319.412 391.608 319.877Q392.045 320.342 392.458 320.828Q392.871 321.314 393.259 321.821Q393.646 322.328 394.008 322.854Q394.369 323.379 394.704 323.923Q395.038 324.466 395.344 325.026Q395.651 325.586 395.928 326.16Q396.194 326.735 396.43 327.322Q396.666 327.91 396.873 328.509Q397.079 329.107 397.255 329.716Q397.431 330.324 397.576 330.941Q397.721 331.557 397.834 332.18Q397.948 332.803 398.03 333.431Q398.112 334.059 398.163 334.69Q398.213 335.322 398.232 335.955Q398.25 336.588 398.237 337.221Q398.223 337.854 398.178 338.486Q398.133 339.117 398.056 339.746Q397.978 340.374 397.87 340.998Q397.761 341.622 397.621 342.24Q397.481 342.857 397.31 343.467Q397.139 344.077 396.937 344.677Q396.736 345.278 396.504 345.867C393.424 353.821 387.681 357.734 380.22 360.961C390.468 361.715 399.37 363.414 407.408 370.286C415.738 377.407 420.282 387.614 421.043 398.452C421.942 411.266 418.707 424.129 410.045 433.843C400.58 444.46 388.035 449.95 373.962 450.795C361.074 450.71 349.184 446.756 339.602 437.911Q338.761 437.12 337.959 436.289Q337.158 435.457 336.398 434.588Q335.638 433.718 334.922 432.813Q334.205 431.907 333.534 430.968Q332.863 430.028 332.238 429.057Q331.614 428.086 331.038 427.085Q330.462 426.084 329.935 425.057Q329.409 424.029 328.933 422.977Q328.457 421.924 328.034 420.85Q327.61 419.776 327.24 418.682Q326.869 417.589 326.553 416.478Q326.236 415.368 325.974 414.243Q325.712 413.119 325.506 411.982Q325.299 410.846 325.149 409.702Q324.998 408.557 324.904 407.406Q324.809 406.255 324.771 405.101C324.41 393.549 328.112 381.738 336.199 373.31C345.259 363.869 356.183 361.617 368.766 361.413C365.466 360.374 362.551 359.333 359.625 357.417Q359.089 357.07 358.571 356.697Q358.052 356.324 357.554 355.925Q357.055 355.526 356.577 355.102Q356.1 354.679 355.644 354.231Q355.188 353.784 354.755 353.314Q354.323 352.845 353.914 352.354Q353.506 351.863 353.123 351.352Q352.74 350.841 352.383 350.311Q352.026 349.782 351.697 349.235Q351.367 348.688 351.066 348.125Q350.764 347.562 350.492 346.984Q350.219 346.407 349.976 345.817Q349.733 345.226 349.52 344.624Q349.307 344.022 349.124 343.41Q348.942 342.798 348.791 342.178Q348.64 341.557 348.52 340.93C347.308 334.392 348.498 327.426 352.476 322.013C356.702 316.263 362.915 313.234 369.813 312.134Z"
     id="path59" />
</svg>
